<svg xmlns="http://www.w3.org/2000/svg" viewBox="0 0 712 712"><path fill="#F7F8F8" d="M342 0h3c44 0 44 0 64 3l4 1a356 356 0 0 1 221 128l1 2 22 30 1 2a340 340 0 0 1 54 179c0 44 0 44-3 64l-1 4a356 356 0 0 1-160 244l-2 1a340 340 0 0 1-179 54c-44 0-44 0-64-3l-4-1A356 356 0 0 1 55 548l-1-2C21 495 0 432 0 370v-3c0-44 0-44 3-64l1-4A356 356 0 0 1 132 78l2-1 30-22 2-1C217 21 280 0 342 0Z"/><path fill="#68944B" d="M552 112h2l-1 21-1 10a173 173 0 0 1-3 22c-4 27-12 56-31 77l-2 2c-22 25-53 41-85 45h-24a368 368 0 0 1 21-24l16-17 5-6 34-34 2-2a1484 1484 0 0 1 20-21l2-2 1-2 2-2a4827 4827 0 0 1-2 1l-21 14-27 20-6 5c-12 9-23 19-34 30l-2 2a222 222 0 0 0-20 22c-28 37-30 92-31 136h2l1-4c1-7 5-14 8-21l1-2a182 182 0 0 1 33-50l2-3h2v-2h2l1-3 9-8 5-3c23-19 55-34 84-39l5-1c21-4 47 0 68 5 23 4 44 7 67 3l-6 9c-9 9-17 21-24 32a277 277 0 0 1-32 42 163 163 0 0 1-155 51h-2l-31-10c1-4 5-6 8-9l3-1a388 388 0 0 1 87-44l30-11 56-23c-41 6-41 6-82 16l-10 3c-36 9-72 25-99 52l-2 2c-6 6-10 14-14 22l-2 3c-9 20-11 42-11 64v12l16 5h2a1352 1352 0 0 0 18 3h2l15 4-1 5c-9 6-18 6-28 6h-4c-10 0-19-1-28-6-6-2-10-3-17-1l-6 3c-9 3-17 4-28 4h-3c-9 0-17 0-24-6l1-4c7-5 16-5 25-6a3028 3028 0 0 0 31-4c-1-42-3-83-35-114-23-22-56-35-86-45l-2-1a471 471 0 0 0-89-16l76 30 4 2c59 25 59 25 83 42l12 8 2 1v2c-12 5-24 10-37 13l-3 1c-18 3-37 2-54-2l-2-1c-24-5-45-15-64-30l-3-2a188 188 0 0 1-37-40l-15-21-27-36-3-5 2 1c16 8 34 4 51 0a859 859 0 0 1 32-7c12-2 25-1 38-1h3c39 1 76 19 104 46l2 2c10 9 18 20 26 32l1 2c9 14 15 30 22 45a222 222 0 0 0-79-184l-3-2-12-12c-7-5-13-12-18-19l6 9 15 20 6 9 1 2 4 5c33 46 33 46 39 58-30-2-55-15-75-38-29-36-34-86-34-130h2l3 4c14 18 30 28 49 38 21 12 39 24 53 43l2 2 13 21 1 2c8 14 11 29 10 45l-1 2a5449 5449 0 0 1 22 51l1 3 5 16h2l1-4c3-16 9-31 14-47l1-3c23-65 23-65 41-89l2-3c21-26 47-41 78-51l21-8 3-1c14-6 25-14 35-26l1-1Z"/><path fill="#10A2D6" d="M448 506c5 0 9 1 14 3h3c17 5 31 14 45 24l13 7 3 2c10 4 21 6 31 7h4l44 5c11 0 22 2 33 4v1h-3a43493 43493 0 0 0-37 1l-69 3a7033 7033 0 0 1-78 6c6 7 20 8 29 9l3 1a730 730 0 0 0 78 7v3c-28 4-57 7-86 9-23 2-46 4-68 8h-3l-3 1h-7l3 3a122 122 0 0 0 25 4l30 2h2l21 1 38 4v2a70 70 0 0 1-18 3l-6 1-14 1h-2l-33 4h-2l-46 8h-2c-9 2-19 5-24 13-3 4-3 8-3 13l5 11c2 5 3 8 2 14-3 4-6 6-10 7-4 0-6 0-10-2l-6-6c0-6 1-11 4-16 2-5 3-9 2-15l-4-6v-2l-2-1-4-2c-26-14-61-15-90-17l-16-2-8-1c-26-2-26-2-31-4l1-3 38-4h10l15-2a17313 17313 0 0 0 58-5v-2h-2l-9-1-3-1-16-2-26-3a13685 13685 0 0 1-34-3l-49-4c-10-1-20-2-29-5l3-4 8-2h7l7-1h7c33-2 33-2 66-9l4-1 3-1 1-2h-3a286 286 0 0 1-51-4h-4l-32-3h-3a1171 1171 0 0 0-83-3v-2l24-3 3-1 21-2c31-2 57-6 84-24 14-11 40-23 59-20l4 6c10 10 28 10 41 9 12 0 23-2 34-7 6-2 11 1 16 3 20 7 42 6 61-1 5-3 9-4 12-8 4-4 5-3 10-3Z"/><path fill="#78A150" d="M350 17h1v4c4 27 15 47 30 70 19 27 30 55 24 89-5 22-14 45-33 59h-1v-2c1-33-4-66-14-97l-4-14a2801 2801 0 0 0-12-42 469 469 0 0 0 12 117v2a1317 1317 0 0 1 2 15l1 22a5853 5853 0 0 0 0 14c-25-12-41-44-50-69a136 136 0 0 1-7-52c-1-43 21-86 51-116Z"/><path fill="#0D97C9" d="m342 494 1 4 1 3 2 6c-11 5-21 7-34 7h-3c-9 0-17 0-24-6l1-4c7-5 16-5 25-6l9-1h2l16-3h4Z"/><path fill="#0B9BCE" d="m370 491 3 1 14 4h2a1442 1442 0 0 0 18 3h3l14 4-1 5c-9 6-18 6-28 6h-4c-7 0-13 0-20-2l-1-21Z"/><path fill="#21A5D8" d="M129 436c7-1 11 1 17 5 5 4 9 10 11 16v3c-7 1-13-2-19-6-4-4-8-8-10-13l1-5Z"/><path fill="#15A8D8" d="M583 437h5c-3 9-7 15-14 19-6 3-10 3-16 3 0-6 3-10 7-15 6-5 11-7 18-7Z"/><path fill="#1DA9CE" d="m448 448 3 1c1 13-4 21-12 30-2 3-2 3-5 4-3-5-2-13 0-19 3-7 8-12 14-16Z"/><path fill="#2AACE1" d="M264 448c4 0 7 2 9 4 7 7 9 15 8 24l-2 7c-8-10-16-21-16-34l1-1Z"/><path fill="#1DA6D9" d="M557 491h6l1 4c-4 6-9 9-16 11h-10l-1-5 5-5 3-2c4-3 7-3 12-3Z"/><path fill="#17A7D6" d="M511 478h5c0 3-1 4-3 6l-2 2-3 2-3 2-3 2-14 10-1-1c1-9 5-13 12-19 4-3 7-4 12-4Z"/><path fill="#19A9D9" d="M148 491c10 0 18-1 26 7l4 6c-2 2-4 1-6 1-8 0-15-2-21-8-3-3-3-3-3-6Z"/><path fill="#14ACD8" d="M204 480c7-1 11 1 17 5 8 7 8 7 9 13h-6c-8-4-14-9-20-15v-3Z"/><path fill="#18A7D6" d="M479 470c-2 7-6 12-12 16l-7 1c0-4 0-6 2-10 5-6 9-8 17-7Z"/><path fill="#25ACDB" d="M234 469c6 0 10 3 14 7 2 4 3 6 3 11-6 0-10-3-14-7-2-4-3-7-3-11Z"/><path fill="#22ADDC" d="M270 507v3h-2a107 107 0 0 0-21 4l-10 3-1-3 11-3 4-2c6-2 12-2 19-2Z"/><path fill="#26AEDC" d="M445 506c6 0 12 1 17 3l3 1 11 4c-4 1-6 0-10-1l-17-4v-2c-5 0-5 0-9 3l-2 3-3 2-3-1 2-1 2-2 2-2c3-3 4-3 7-3Z"/><path fill="#46B8E1" d="M416 522c-5 2-8 3-14 3a1238223640 1238223640 0 0 0-13 0c-10-1-10-1-12-3h3a3917 3917 0 0 0 19 0h17Z"/><path fill="#77955F" d="m427 317 2 1-20 20-2-1 3-4 2-2 2-2h2v-2h2l1-3 4-4 2-2 2-1Z"/><path fill="#21A2D0" d="m234 469 5 1 1 10h-3c-3-6-3-6-3-11Z"/><path fill="#3DB4DE" d="M265 507h5v3h-18c5-2 8-3 13-3Z"/><path fill="#3AADD8" d="m443 506 13 1v1h-11c-3 0-3 0-5 2l-2 3-3 2-3-1 2-1 2-2 2-2c3-3 3-3 5-3Z"/><path fill="#638954" d="M350 193c3 3 3 7 3 12a521 521 0 0 1 0 11h-1l-2-23Z"/><path fill="#8BAC57" d="M193 118h2l3 4-1 2-2-1-1 15h-1v-20Z"/><path fill="#D2DCD2" d="m593 317-5 3-3 1-5 1-1-4 6-1 3-1 5 1Z"/><path fill="#5C894A" d="M293 274c4 3 6 8 9 12l-6-3c-2-3-3-5-3-9Z"/><path fill="#7B9962" d="M342 147h2a508 508 0 0 1 1 15l-3-15Z"/><path fill="#1888C1" d="M369 685h1c0 4 0 6-2 9-3 2-5 3-8 3l6-5c3-2 3-4 3-7Z"/><path fill="#709058" d="m397 200 2 1-6 12v-5l1-3 2-3 1-2Z"/><path fill="#62805E" d="m179 402 11 4v2l-11-4v-2Z"/><path fill="#BFCEAD" d="M229 182a468445908 468445908 0 0 1 10 10h-3l-4-4-2-3-1-3Z"/><path fill="#CFE2EA" d="m403 607-3 1v3l-6-2v-2h9Z"/><path fill="#1FA1CC" d="M582 437v2l-10 1c3-3 6-3 10-3Z"/><path fill="#D2E1CF" d="M515 172c0 3 0 3-2 5l-1 1-2 2-2 1c0-3 0-3 2-5l2-1 1-2 2-1Z"/><path fill="#2794BF" d="M196 621h6l-1 3h-6l1-3Z"/><path fill="#0FA2CB" d="M219 486c4 0 6 3 9 6l-1 2-4-3-2-2-2-2v-1Z"/><path fill="#34A3D8" d="M264 448c4 0 6 2 9 5l-9-3v-2Z"/><path fill="#5F8D4E" d="M326 283c3 2 3 3 4 6v3l-1-2h-2l-1-7Z"/><path fill="#32B7E9" d="m355 514-8 4v-2c4-3 4-3 8-2Z"/><path fill="#1DA3D2" d="M148 492h7l-2 4h-3l-2-4Z"/><path fill="#9CB57E" d="M532 273v1c-7 2-7 2-10 1l-2-1 12-1Z"/></svg>
